<?xml version="1.0" standalone="no"?>
<!DOCTYPE svg PUBLIC "-//W3C//DTD SVG 20010904//EN"
 "http://www.w3.org/TR/2001/REC-SVG-20010904/DTD/svg10.dtd">
<svg version="1.0" xmlns="http://www.w3.org/2000/svg"
 width="3189.000000pt" height="411.000000pt" viewBox="0 0 3189.000000 411.000000"
 preserveAspectRatio="xMidYMid meet">

<g transform="translate(0.000000,411.000000) scale(0.100000,-0.100000)"
 stroke="none">
<path fill="#fff" d="M9521 4095 c-118 -33 -238 -128 -293 -231 -60 -111 -58 -81 -58
-1119 0 -584 4 -985 10 -1040 35 -300 137 -588 296 -833 291 -449 748 -751
1279 -848 119 -22 415 -30 542 -15 595 70 1103 394 1420 904 336 543 370 1250
89 1832 -285 587 -844 985 -1499 1066 -156 19 -453 7 -602 -25 -185 -39 -379
-108 -512 -182 -34 -19 -63 -34 -66 -34 -2 0 -7 39 -9 88 -4 54 -14 109 -28
144 -46 122 -156 232 -279 279 -74 28 -215 35 -290 14z m1824 -1259 c333 -100
584 -358 671 -691 37 -143 37 -327 0 -469 -87 -332 -341 -594 -671 -691 -112
-33 -295 -44 -412 -25 -178 28 -364 119 -498 243 -97 89 -157 170 -216 292
-76 156 -92 230 -92 415 0 126 4 169 21 233 93 342 361 614 688 696 118 30
117 30 274 26 123 -2 159 -7 235 -29z"/>
<path fill="#fff" d="M6300 3803 c-621 -95 -1154 -481 -1433 -1039 -290 -580 -258 -1306
81 -1852 286 -460 723 -765 1259 -879 118 -25 147 -27 363 -28 247 0 300 6
485 52 198 49 399 138 575 253 428 282 718 710 828 1220 25 117 27 141 27 380
0 239 -2 263 -27 380 -173 807 -805 1400 -1613 1515 -128 19 -420 18 -545 -2z
m543 -967 c312 -93 548 -320 653 -628 55 -161 59 -397 10 -562 -104 -347 -384
-605 -736 -678 -124 -26 -316 -21 -435 12 -329 90 -579 337 -681 675 -24 80
-27 107 -28 245 -1 122 3 171 18 230 48 188 121 317 260 456 142 142 289 225
476 265 128 28 343 21 463 -15z"/>
<path fill="#fff" d="M14008 3801 c-153 -49 -271 -177 -313 -338 -23 -86 -23 -3020 0
-3106 56 -217 237 -357 460 -357 221 0 404 140 461 355 18 67 21 3013 3 3097
-34 159 -163 300 -320 349 -80 25 -213 25 -291 0z"/>
<path fill="#00B2A9" d="M17000 3809 c-212 -24 -433 -92 -640 -196 -497 -250 -865 -711 -995
-1245 -271 -1113 482 -2207 1618 -2353 374 -48 748 17 1097 192 79 40 145 71
145 70 42 -85 135 -182 214 -221 255 -130 555 -16 663 252 l23 57 3 810 c2
543 0 846 -8 920 -91 903 -791 1611 -1695 1715 -104 11 -317 11 -425 -1z m460
-965 c333 -84 593 -339 692 -680 20 -69 23 -101 23 -254 0 -153 -3 -185 -23
-254 -80 -277 -273 -505 -527 -622 -208 -96 -456 -114 -681 -49 -444 129 -735
568 -684 1029 51 450 399 801 849 856 97 12 243 1 351 -26z"/>
<path fill="#00B2A9" d="M29760 3809 c-212 -24 -433 -92 -640 -196 -645 -325 -1050 -981
-1050 -1703 0 -1052 858 -1910 1910 -1910 974 0 1793 738 1899 1712 62 561
-141 1137 -543 1541 -311 314 -709 506 -1151 557 -104 11 -317 11 -425 -1z
m420 -955 c411 -85 720 -432 759 -852 62 -675 -564 -1200 -1218 -1022 -505
139 -809 666 -676 1174 67 257 243 479 478 606 199 107 433 141 657 94z"/>
<path  fill="#00B2A9" d="M20145 3776 c-243 -80 -381 -317 -320 -549 55 -210 228 -348 440
-348 234 -1 422 160 458 391 30 195 -74 385 -259 476 -72 36 -84 39 -178 41
-64 2 -116 -2 -141 -11z"/>
<path fill="#00B2A9" d="M22946 3779 c-111 -26 -240 -132 -294 -241 -151 -308 70 -661 413
-659 390 1 597 461 341 757 -47 55 -128 108 -204 133 -66 23 -183 27 -256 10z"/>
<path fill="#00B2A9" d="M24338 3771 c-276 -89 -406 -389 -280 -650 57 -119 197 -225 331
-251 32 -6 252 -10 542 -10 l489 0 0 -1152 c1 -634 3 -1187 6 -1228 15 -191
106 -328 271 -407 123 -59 273 -57 401 4 69 34 167 129 205 200 58 108 57 81
57 1386 l0 1197 498 0 c539 0 556 1 664 56 66 34 158 120 191 182 44 81 60
155 55 256 -3 80 -8 101 -41 169 -48 103 -121 175 -224 225 l-78 37 -1515 2
c-1444 2 -1518 1 -1572 -16z"/>
<path fill="#fff" d="M1160 3740 c-41 -6 -105 -16 -141 -25 -525 -118 -923 -548 -1004
-1085 -22 -144 -22 -2066 0 -2159 63 -268 338 -443 605 -387 185 39 328 160
394 334 21 57 21 64 26 1072 l5 1015 27 50 c32 62 70 98 128 124 55 25 152 28
204 6 49 -21 113 -80 139 -129 l22 -41 5 -1015 5 -1015 26 -66 c58 -150 175
-265 322 -317 96 -34 242 -35 331 -3 166 59 288 183 336 339 19 62 20 95 20
1033 0 659 3 984 11 1019 15 68 64 138 123 174 39 24 63 31 118 34 89 5 143
-15 202 -75 80 -81 76 -17 76 -1092 0 -593 4 -981 10 -1021 15 -94 77 -215
146 -284 74 -74 190 -132 295 -147 257 -37 497 120 576 376 17 57 18 119 18
1090 0 1136 2 1101 -64 1302 -65 198 -165 359 -320 514 -256 256 -556 381
-916 382 -270 1 -514 -69 -720 -208 -37 -25 -69 -45 -71 -45 -2 0 -34 20 -71
44 -208 134 -423 201 -670 210 -65 3 -152 1 -193 -4z"/>
<path fill="#00B2A9" d="M20125 2349 c-85 -30 -163 -86 -217 -156 -88 -117 -112 -235 -89
-454 45 -432 218 -809 509 -1111 287 -298 658 -490 1067 -553 131 -20 408 -20
539 0 740 113 1341 653 1526 1370 64 248 77 508 31 627 -31 81 -78 145 -146
201 -92 73 -147 91 -286 92 -113 0 -116 -1 -191 -38 -82 -40 -150 -99 -193
-167 -47 -75 -65 -145 -75 -290 -6 -81 -18 -165 -30 -210 -92 -327 -355 -580
-686 -662 -125 -30 -313 -30 -438 0 -340 84 -606 348 -691 687 -9 39 -21 126
-25 195 -10 148 -26 207 -80 288 -49 74 -108 123 -197 165 -60 28 -80 32 -168
34 -81 3 -111 0 -160 -18z"/>
</g>
</svg>
